Hanif_Shallow_7_5_grf.mot
version=1
nRows=42
nColumns=19
inDegrees=yes
endheader
time	right_ground_force_vx	right_ground_force_vy	right_ground_force_vz	right_ground_force_px	right_ground_force_py	right_ground_force_pz	right_ground_torque_x	right_ground_torque_y	right_ground_torque_z	left_ground_force_vx	left_ground_force_vy	left_ground_force_vz	left_ground_force_px	left_ground_force_py	left_ground_force_pz	left_ground_torque_x	left_ground_torque_y	left_ground_torque_z
1.375000	-0.380360	292.245000	57.409800	0.211793	0.000000	-1.424450	-23.835000	0.462891	3.676320	-10.920400	298.251000	-60.828400	0.216920	0.000000	-0.985552	24.725600	-0.923250	5.628560
1.380000	0.183882	290.644000	57.479100	0.211435	0.000000	-1.425620	-23.360900	0.641154	3.577370	-11.307900	298.688000	-60.849900	0.216168	0.000000	-0.984671	24.505700	-1.037960	5.429190
1.385000	0.496790	290.700000	57.755800	0.210119	0.000000	-1.426530	-23.098900	0.847667	3.218170	-11.060800	299.991000	-61.635100	0.215733	0.000000	-0.984716	24.621400	-1.042980	5.318820
1.390000	0.553525	289.870000	57.986500	0.209673	0.000000	-1.426840	-22.942900	0.958822	3.099270	-11.621000	300.242000	-62.260300	0.215420	0.000000	-0.984258	24.511100	-1.046420	5.241550
1.395000	0.352468	288.122000	57.400300	0.208814	0.000000	-1.427750	-22.544800	1.179180	2.869730	-11.853900	299.383000	-62.227900	0.215022	0.000000	-0.984967	24.657300	-1.067260	5.115420
1.400000	0.488657	285.826000	58.069800	0.207582	0.000000	-1.427360	-22.475700	1.329220	2.518720	-11.957800	298.784000	-62.642400	0.214606	0.000000	-0.984027	24.329200	-1.106090	4.990920
1.405000	0.655453	288.634000	57.928500	0.207944	0.000000	-1.428680	-22.313600	1.400090	2.656100	-11.839700	297.922000	-62.669200	0.213969	0.000000	-0.984489	24.393500	-1.084860	4.776850
1.410000	0.396394	290.911000	58.278600	0.207237	0.000000	-1.428340	-22.589700	1.621640	2.508410	-11.619500	298.602000	-62.532800	0.213465	0.000000	-0.984007	24.301200	-1.105440	4.625720
1.415000	-0.001323	291.862000	59.146000	0.207251	0.000000	-1.429310	-22.383900	1.666810	2.541110	-11.554300	297.616000	-62.714600	0.213174	0.000000	-0.983175	23.974500	-1.157640	4.534020
1.420000	-0.673649	293.938000	59.464500	0.206054	0.000000	-1.430240	-22.272900	1.724400	2.211370	-11.576800	300.136000	-62.748000	0.212750	0.000000	-0.982422	23.944700	-1.065070	4.408740
1.425000	-1.174460	294.658000	59.146600	0.205571	0.000000	-1.429970	-22.411000	1.816160	2.090100	-11.337000	298.088000	-62.823700	0.212231	0.000000	-0.983224	24.017400	-1.043930	4.219660
1.430000	-1.920060	295.187000	59.120000	0.205693	0.000000	-1.429360	-22.640300	1.941520	2.166160	-11.305700	299.731000	-63.057100	0.212643	0.000000	-0.982945	24.064000	-1.006480	4.359090
1.435000	-2.243510	298.623000	59.743900	0.205274	0.000000	-1.430690	-22.508600	2.000740	2.072210	-10.882100	302.461000	-63.804500	0.211564	0.000000	-0.983272	24.373800	-1.022210	4.053100
1.440000	-2.448620	300.385000	59.883100	0.204545	0.000000	-1.430890	-22.582900	2.028870	1.860750	-10.286600	301.500000	-63.740500	0.211106	0.000000	-0.983813	24.453400	-1.048460	3.895460
1.445000	-2.394040	304.448000	59.927300	0.204036	0.000000	-1.431600	-22.672700	2.242490	1.752980	-9.368740	305.044000	-64.016000	0.210273	0.000000	-0.982534	24.339800	-1.149610	3.669420
1.450000	-1.931120	306.743000	60.744400	0.203764	0.000000	-1.431260	-22.944100	2.447180	1.713030	-8.637400	304.473000	-64.199800	0.209417	0.000000	-0.981860	24.081300	-1.202140	3.391860
1.455000	-1.224040	312.932000	61.513400	0.202756	0.000000	-1.432360	-23.054000	2.581850	1.421140	-8.389060	305.392000	-63.900800	0.208915	0.000000	-0.982846	24.452200	-1.227550	3.238710
1.460000	-1.399870	316.419000	62.690700	0.202381	0.000000	-1.432150	-23.380400	2.716060	1.341470	-7.809450	305.947000	-63.750700	0.208210	0.000000	-0.982785	24.473300	-1.334520	3.028780
1.465000	-0.548725	322.402000	62.953200	0.201676	0.000000	-1.432690	-23.641700	2.942290	1.143350	-7.774420	306.127000	-63.050600	0.207888	0.000000	-0.983471	24.699500	-1.447030	2.944200
1.470000	-0.406211	327.417000	63.916900	0.201139	0.000000	-1.433090	-23.877100	3.088500	0.995785	-6.839180	311.198000	-63.322600	0.207051	0.000000	-0.982721	24.862000	-1.422490	2.685340
1.475000	-0.014722	330.694000	64.661500	0.200107	0.000000	-1.433620	-23.934300	3.254980	0.673334	-6.483370	315.875000	-64.126300	0.206639	0.000000	-0.982188	25.063000	-1.468200	2.585920
1.480000	0.743340	335.165000	65.531400	0.198669	0.000000	-1.434020	-24.116200	3.498340	0.210225	-6.874660	319.751000	-63.682400	0.206347	0.000000	-0.982008	25.314900	-1.465250	2.509930
1.485000	1.259630	336.812000	66.570300	0.198144	0.000000	-1.434590	-24.038000	3.629900	0.050149	-6.925880	320.706000	-63.979500	0.206437	0.000000	-0.982668	25.601700	-1.429320	2.541880
1.490000	2.583400	338.706000	66.854900	0.196881	0.000000	-1.435420	-23.879600	3.831130	-0.377223	-6.533320	323.619000	-64.375200	0.205529	0.000000	-0.982577	25.801200	-1.526390	2.267230
1.495000	2.936020	341.681000	67.638300	0.196016	0.000000	-1.435540	-24.043100	4.010910	-0.661660	-6.694690	323.969000	-64.105400	0.204126	0.000000	-0.982219	25.712600	-1.537440	1.798280
1.500000	3.754390	345.915000	68.305900	0.195212	0.000000	-1.435850	-24.228200	4.195400	-0.944510	-6.332830	325.422000	-64.578200	0.204074	0.000000	-0.982909	26.048400	-1.512820	1.778510
1.505000	4.359630	349.220000	68.604300	0.194008	0.000000	-1.436030	-24.387500	4.476610	-1.353700	-6.289560	326.141000	-64.449200	0.203807	0.000000	-0.982912	26.105400	-1.472350	1.680320
1.510000	4.665310	351.245000	68.750600	0.193432	0.000000	-1.436190	-24.468600	4.690980	-1.540910	-6.187910	328.683000	-63.970400	0.202838	0.000000	-0.982519	26.178500	-1.557450	1.366890
1.515000	5.729750	356.442000	69.266400	0.192499	0.000000	-1.436840	-24.591800	4.716440	-1.935140	-6.070200	329.252000	-64.025300	0.202313	0.000000	-0.982077	26.077200	-1.595400	1.193870
1.520000	6.758410	359.867000	69.698100	0.191647	0.000000	-1.436150	-25.061100	5.077850	-2.226530	-6.244970	331.839000	-63.702000	0.201923	0.000000	-0.982242	26.335800	-1.519720	1.048350
1.525000	7.400780	361.369000	70.470200	0.190512	0.000000	-1.436680	-24.965600	5.234530	-2.638370	-6.156640	331.132000	-63.765200	0.201607	0.000000	-0.982750	26.448500	-1.600580	0.954567
1.530000	8.570930	363.359000	71.065300	0.189886	0.000000	-1.436830	-25.039700	5.316310	-2.891790	-5.938750	332.031000	-63.771300	0.200880	0.000000	-0.982225	26.343300	-1.604560	0.701635
1.535000	9.899480	365.008000	71.897900	0.188934	0.000000	-1.436780	-25.154900	5.571800	-3.233470	-5.528710	332.230000	-63.530700	0.199708	0.000000	-0.981704	26.182200	-1.658890	0.300029
1.540000	11.327600	368.302000	71.884800	0.187939	0.000000	-1.437780	-25.001600	5.690910	-3.651300	-5.171760	332.983000	-63.094800	0.199592	0.000000	-0.981631	26.215000	-1.677730	0.254186
1.545000	11.997600	367.916000	72.041200	0.186821	0.000000	-1.437680	-25.006100	5.763380	-4.066780	-5.134400	332.928000	-63.591600	0.198864	0.000000	-0.982225	26.408400	-1.760630	0.022120
1.550000	12.629700	367.589000	72.157000	0.185920	0.000000	-1.438230	-24.774900	5.846620	-4.395280	-5.039490	330.919000	-63.324000	0.198545	0.000000	-0.982383	26.301300	-1.800170	-0.077980
1.555000	13.896700	367.189000	72.033700	0.184823	0.000000	-1.438270	-24.720700	5.973140	-4.800130	-5.341000	330.733000	-62.422800	0.198226	0.000000	-0.981856	26.114000	-1.775540	-0.193002
1.560000	14.811600	366.579000	72.415400	0.184292	0.000000	-1.438920	-24.432900	6.051820	-4.983610	-5.600010	330.205000	-61.924100	0.197210	0.000000	-0.982340	26.232900	-1.760210	-0.540406
1.565000	15.247300	366.941000	72.186500	0.182719	0.000000	-1.439120	-24.373300	6.312270	-5.545210	-6.281090	330.552000	-61.627300	0.196843	0.000000	-0.981835	26.099700	-1.828080	-0.646840
1.570000	16.040000	367.101000	73.356900	0.182106	0.000000	-1.439220	-24.341600	6.367990	-5.772790	-6.531910	330.945000	-61.165300	0.196505	0.000000	-0.982502	26.353600	-1.867660	-0.755157
1.575000	16.324400	365.418000	73.302500	0.180804	0.000000	-1.439050	-24.286600	6.480350	-6.215960	-7.063870	329.676000	-60.926000	0.196614	0.000000	-0.982863	26.375200	-1.799840	-0.717697
1.580000	17.352700	366.710000	73.007300	0.180548	0.000000	-1.439970	-24.026100	6.499210	-6.350110	-7.608110	328.933000	-60.679400	0.196182	0.000000	-0.982466	26.188700	-1.780290	-0.858626
